{"title":"Luke Nguyen's Vietnam Season 1 S01 DivX","uid":9521180,"size":6188940281,"categoryP":"video","categoryS":"tv_shows","magnet":"?xt=urn:btih:9142a46ad48b33c6d3c523d558b50a93766d91f0&amp;dn=Luke+Nguyen%27s+Vietnam+Season+1+S01+DivX&amp;tr=udp%3A%2F%2Ftracker.openbittorrent.com%3A80&amp;tr=udp%3A%2F%2Fopen.demonii.com%3A1337&amp;tr=udp%3A%2F%2Ftracker.coppersurfer.tk%3A6969&amp;tr=udp%3A%2F%2Fexodus.desync.com%3A6969","seeders":7,"leechers":3,"uploader":"wildpig1234","files":-1,"time":1390637331,"description":"Luke Nguyen, acclaimed owner and chef of the Sydney restaurant 'The Red Lantern', returns to the country of his heritage to take a culinary journey through the northern regions of Vietnam. Starting in Hue, Luke travels through Vietnam's spectacular northern countryside, visiting the natural wonders of Ha Long Bay, stopping at the French inspired Hanoi and all the way to the beautiful mountains of Sapa. Along the way he prepares dishes in locations that represent an authentic Vietnam, in all its chaotic vibrancy.\n\nThis has both the DVDRip mp4 and extra as well as the original two DVD9.  You can get only the rip files or get also the DVD9 iso to burn or both.\n\n\nPlease keep seeding this nice travel/cooking show.  Thanks\n\n\n\nFormat                         : AVI\nFormat/Info                    : Audio Video Interleave\nFile size                      : 485 MiB\nDuration                       : 24mn 32s\nOverall bit rate               : 2 760 Kbps\nWriting application            : Lavf51.12.1\n\nVideo\nID                             : 0\nFormat                         : MPEG-4 Visual\nFormat profile                 : Simple@L1\nFormat settings, BVOP          : No\nFormat settings, QPel          : No\nFormat settings, GMC           : No warppoints\nFormat settings, Matrix        : Default (H.263)\nCodec ID                       : DX50\nCodec ID/Hint                  : DivX 5\nDuration                       : 24mn 32s\nBit rate                       : 2 491 Kbps\nWidth                          : 720 pixels\nHeight                         : 480 pixels\nDisplay aspect ratio           : 3:2\nFrame rate                     : 25.000 fps\nStandard                       : NTSC\nColor space                    : YUV\nChroma subsampling             : 4:2:0\nBit depth                      : 8 bits\nScan type                      : Progressive\nCompression mode               : Lossy\nBits/(Pixel*Frame)             : 0.288\nStream size                    : 437 MiB (90%)\nWriting library                : Lavc51.40.4\n\nAudio\nID                             : 1\nFormat                         : MPEG Audio\nFormat version                 : Version 1\nFormat profile                 : Layer 3\nMode                           : Joint stereo\nMode extension                 : MS Stereo\nCodec ID                       : 55\nCodec ID/Hint                  : MP3\nDuration                       : 24mn 32s\nBit rate mode                  : Constant\nBit rate                       : 256 Kbps\nChannel(s)                     : 2 channels\nSampling rate                  : 48.0 KHz\nCompression mode               : Lossy\nStream size                    : 44.9 MiB (9%)\nAlignment                      : Aligned on interleaves\nInterleave, duration           : 24 ms (0.60 video frame)\nInterleave, preload duration   : 24 ms\n\n","torrent":{"xt":"urn:btih:9142a46ad48b33c6d3c523d558b50a93766d91f0","amp;dn":"Luke+Nguyen%27s+Vietnam+Season+1+S01+DivX","amp;tr":["udp%3A%2F%2Ftracker.openbittorrent.com%3A80","udp%3A%2F%2Fopen.demonii.com%3A1337","udp%3A%2F%2Ftracker.coppersurfer.tk%3A6969","udp%3A%2F%2Fexodus.desync.com%3A6969"],"infoHash":"9142a46ad48b33c6d3c523d558b50a93766d91f0","infoHashBuffer":{"type":"Buffer","data":[145,66,164,106,212,139,51,198,211,197,35,213,88,181,10,147,118,109,145,240]},"announce":[],"urlList":[]}}